<svg xmlns="http://www.w3.org/2000/svg" width="15.4" height="18.321" viewBox="0 0 15.4 18.321">
  <g id="Group_2314" data-name="Group 2314" transform="translate(0 0)">
    <path id="Path_6591" data-name="Path 6591" d="M283.561,655.956a20.794,20.794,0,0,0,.924-5.441,3.656,3.656,0,0,1,7.312,0,20.712,20.712,0,0,0,.91,5.4,15.235,15.235,0,0,1-9.146.044Zm4.58,2.394a1.043,1.043,0,0,1-.978-.689c.208.008.421.014.643.014.419,0,.862-.017,1.326-.053a1.043,1.043,0,0,1-.99.728Zm-.522-13.057a.522.522,0,1,1,.522.522.523.523,0,0,1-.522-.522Zm6.24,10.8a20.978,20.978,0,0,1-1.017-5.578A4.513,4.513,0,0,0,289.53,646a1.547,1.547,0,0,0,.178-.709,1.567,1.567,0,1,0-3.134,0,1.547,1.547,0,0,0,.178.709,4.513,4.513,0,0,0-3.311,4.513,21.019,21.019,0,0,1-1.017,5.578.522.522,0,0,0,.265.636,10.977,10.977,0,0,0,3.392.851,2.078,2.078,0,0,0,4.13-.077,20.331,20.331,0,0,0,3.31-.745.522.522,0,0,0,.339-.665Z" transform="translate(-282.395 -641.073)" fill="#fff"/>
    <path id="Path_6592" data-name="Path 6592" d="M332.512,643.911a.522.522,0,1,0-.068,1.043,3.556,3.556,0,0,1,3.265,4.443.522.522,0,0,0,1.015.247,4.6,4.6,0,0,0-4.212-5.732Z" transform="translate(-324.178 -641.229)" fill="#fff"/>
    <path id="Path_6593" data-name="Path 6593" d="M338.721,629.742a7.219,7.219,0,0,0-5.6-2.918.522.522,0,0,0-.038,1.044,6.112,6.112,0,0,1,5.744,7.818.522.522,0,0,0,1.008.276A7.219,7.219,0,0,0,338.721,629.742Z" transform="translate(-324.7 -626.824)" fill="#fff"/>
  </g>
</svg>
